<?xml version="1.0" encoding="utf-8"?>
<!-- Generator: Adobe Illustrator 27.5.0, SVG Export Plug-In . SVG Version: 6.00 Build 0)  -->
<svg version="1.1" id="Layer_1" xmlns="http://www.w3.org/2000/svg" xmlns:xlink="http://www.w3.org/1999/xlink" x="0px" y="0px"
	 viewBox="0 0 1300 1300" style="enable-background:new 0 0 1300 1300;" xml:space="preserve">
<g id="XMLID_2_">
	<g id="XMLID_1_">
		<g id="XMLID_7_">
			
				<linearGradient id="XMLID_00000069363931689221107960000002288965628099002797_" gradientUnits="userSpaceOnUse" x1="662.4579" y1="503.5982" x2="662.4579" y2="183.0833">
				<stop  offset="0" style="stop-color:#1D1714"/>
				<stop  offset="0.6223" style="stop-color:#3B3331"/>
				<stop  offset="1" style="stop-color:#47403D"/>
			</linearGradient>
			<path id="XMLID_11_" style="fill:url(#XMLID_00000069363931689221107960000002288965628099002797_);" d="M675.916,188.728
				c-7.394-7.526-19.522-7.526-26.916,0l-83.16,84.648L367.824,471.392c-11.885,11.885-3.468,32.207,13.34,32.207h137.41
				c5.004,0,9.802-1.988,13.34-5.526l117.203-117.203c7.368-7.368,19.313-7.368,26.681,0l117.203,117.203
				c3.538,3.538,8.337,5.526,13.34,5.526h137.41c16.808,0,25.225-20.322,13.34-32.207L759.076,273.376L675.916,188.728z"/>
			
				<linearGradient id="XMLID_00000109014290524351802990000004293806298631479206_" gradientUnits="userSpaceOnUse" x1="662.4579" y1="839.0219" x2="662.4579" y2="518.5359">
				<stop  offset="0" style="stop-color:#204F23"/>
				<stop  offset="1" style="stop-color:#00AE4D"/>
			</linearGradient>
			<path id="XMLID_12_" style="fill:url(#XMLID_00000109014290524351802990000004293806298631479206_);" d="M759.076,748.758
				l197.9-197.9c11.928-11.928,3.48-32.322-13.388-32.322H806.37c-5.022,0-9.838,1.995-13.388,5.546L675.846,641.217
				c-7.394,7.394-19.382,7.394-26.777,0L531.934,524.081c-3.551-3.551-8.367-5.546-13.388-5.546H381.328
				c-16.868,0-25.316,20.395-13.388,32.322l197.9,197.9l83.112,84.599c7.42,7.553,19.593,7.553,27.013,0L759.076,748.758z"/>
		</g>
		<g id="XMLID_27_">
			<path id="XMLID_43_" style="fill:#00AE4D;" d="M381.328,518.536c-5.141,0-9.493,1.9-12.731,4.872l16.085,44.193l36.552,36.552
				l-31.162-85.617H381.328z"/>
			<polygon id="XMLID_44_" style="fill:#00AE4D;" points="407.825,518.536 449.146,632.065 485.698,668.616 431.073,518.536 			"/>
			<polygon id="XMLID_45_" style="fill:#00AE4D;" points="448.826,518.536 513.61,696.528 550.161,733.08 472.074,518.536 			"/>
			<polygon id="XMLID_46_" style="fill:#00AE4D;" points="489.827,518.536 578.2,761.34 615.13,798.93 513.075,518.536 			"/>
			<path id="XMLID_47_" style="fill:#00AE4D;" d="M533.368,525.515l109.963,302.121l5.621,5.721
				c5.694,5.796,14.18,7.127,21.176,4.028L569.92,562.067L533.368,525.515z"/>
			<polygon id="XMLID_48_" style="fill:#00AE4D;" points="597.832,589.979 683.589,825.596 700.552,808.329 634.383,626.531 			"/>
			<path id="XMLID_49_" style="fill:#00AE4D;" d="M675.846,641.217c-4.477,4.477-10.637,6.225-16.443,5.28l54.103,148.646
				l16.963-17.267l-51.043-140.24L675.846,641.217z"/>
			<polygon id="XMLID_50_" style="fill:#00AE4D;" points="692.442,624.621 743.423,764.691 759.076,748.758 760.393,747.441 
				709.486,607.577 			"/>
			<polygon id="XMLID_51_" style="fill:#00AE4D;" points="722.502,594.561 773.409,734.426 790.453,717.381 739.546,577.517 			"/>
			<polygon id="XMLID_52_" style="fill:#00AE4D;" points="752.562,564.501 803.469,704.366 820.513,687.321 769.606,547.457 			"/>
			<path id="XMLID_53_" style="fill:#00AE4D;" d="M792.982,524.081l-10.36,10.36l50.906,139.865l17.044-17.044l-50.138-137.754
				C797.654,520.427,795.091,521.972,792.982,524.081z"/>
			<polygon id="XMLID_54_" style="fill:#00AE4D;" points="817.834,518.536 863.588,644.246 880.633,627.202 841.082,518.536 			"/>
			<polygon id="XMLID_55_" style="fill:#00AE4D;" points="858.835,518.536 893.648,614.186 910.693,597.142 882.082,518.536 			"/>
			<polygon id="XMLID_56_" style="fill:#00AE4D;" points="899.835,518.536 923.708,584.126 940.753,567.082 923.083,518.536 			"/>
			<path id="XMLID_57_" style="fill:#00AE4D;" d="M943.588,518.536h-2.752l12.932,35.53l3.208-3.208
				C968.904,538.93,960.456,518.536,943.588,518.536z"/>
		</g>
		<g id="XMLID_3_">
			<path id="XMLID_23_" style="fill:#322B29;" d="M943.489,503.577c5.141,0,9.493-1.9,12.731-4.872l-16.085-44.193l-36.552-36.552
				l31.162,85.617H943.489z"/>
			<polygon id="XMLID_22_" style="fill:#322B29;" points="916.992,503.577 875.671,390.049 839.119,353.497 893.744,503.577 			"/>
			<polygon id="XMLID_21_" style="fill:#322B29;" points="875.991,503.577 811.207,325.585 774.655,289.033 852.743,503.577 			"/>
			<polygon id="XMLID_20_" style="fill:#322B29;" points="834.99,503.577 746.617,260.773 709.687,223.183 811.742,503.577 			"/>
			<path id="XMLID_19_" style="fill:#322B29;" d="M791.449,496.598L681.486,194.477l-5.621-5.721
				c-5.694-5.796-14.18-7.127-21.176-4.028l100.208,275.318L791.449,496.598z"/>
			<polygon id="XMLID_18_" style="fill:#322B29;" points="726.985,432.134 641.228,196.518 624.264,213.784 690.433,395.583 			"/>
			<path id="XMLID_17_" style="fill:#322B29;" d="M648.97,380.896c4.477-4.477,10.637-6.225,16.443-5.28L611.31,226.97
				l-16.963,17.267l51.043,140.24L648.97,380.896z"/>
			<polygon id="XMLID_16_" style="fill:#322B29;" points="632.375,397.492 581.393,257.422 565.74,273.355 564.424,274.672 
				615.33,414.536 			"/>
			<polygon id="XMLID_15_" style="fill:#322B29;" points="602.315,427.552 551.408,287.688 534.364,304.732 585.271,444.596 			"/>
			<polygon id="XMLID_14_" style="fill:#322B29;" points="572.255,457.612 521.348,317.747 504.304,334.792 555.211,474.656 			"/>
			<path id="XMLID_13_" style="fill:#322B29;" d="M531.835,498.032l10.36-10.36l-50.907-139.865l-17.044,17.044l50.138,137.754
				C527.163,501.686,529.725,500.142,531.835,498.032z"/>
			<polygon id="XMLID_9_" style="fill:#322B29;" points="506.983,503.577 461.228,377.867 444.184,394.911 483.735,503.577 			"/>
			<polygon id="XMLID_8_" style="fill:#322B29;" points="465.982,503.577 431.168,407.927 414.124,424.971 442.734,503.577 			"/>
			<polygon id="XMLID_6_" style="fill:#322B29;" points="424.981,503.577 401.108,437.987 384.064,455.031 401.733,503.577 			"/>
			<path id="XMLID_4_" style="fill:#322B29;" d="M381.229,503.577h2.752l-12.932-35.53l-3.208,3.208
				C355.913,483.183,364.361,503.577,381.229,503.577z"/>
		</g>
		<g id="XMLID_24_">
			
				<linearGradient id="XMLID_00000157989823274065536180000002003488643161067172_" gradientUnits="userSpaceOnUse" x1="662.458" y1="597.8741" x2="662.458" y2="511.067">
				<stop  offset="0" style="stop-color:#47403D"/>
				<stop  offset="0.3777" style="stop-color:#3B3331"/>
				<stop  offset="1" style="stop-color:#1D1714"/>
			</linearGradient>
			<path id="XMLID_26_" style="fill:url(#XMLID_00000157989823274065536180000002003488643161067172_);" d="M662.458,597.874
				c47.942,0,86.807-38.865,86.807-86.807H575.651C575.651,559.009,614.516,597.874,662.458,597.874z"/>
			
				<linearGradient id="XMLID_00000115499348145236913050000014534390970337452478_" gradientUnits="userSpaceOnUse" x1="662.458" y1="511.067" x2="662.458" y2="424.2599">
				<stop  offset="0" style="stop-color:#00AE4D"/>
				<stop  offset="1" style="stop-color:#204F23"/>
			</linearGradient>
			<path id="XMLID_28_" style="fill:url(#XMLID_00000115499348145236913050000014534390970337452478_);" d="M662.458,424.26
				c-47.942,0-86.807,38.865-86.807,86.807h173.614C749.265,463.125,710.4,424.26,662.458,424.26z"/>
		</g>
	</g>
	<g id="XMLID_80_">
		<path id="XMLID_81_" style="fill:#1D1714;" d="M237.707,886.038v90.271h56.225v19.054h-76.84V886.038H237.707z"/>
		<path id="XMLID_83_" style="fill:#1D1714;" d="M412.624,941.325c-0.313,28.269-17.649,56.536-56.069,56.536
			s-56.224-27.643-56.224-56.381c0-28.737,18.429-57.63,56.224-57.63C394.195,883.851,412.936,912.744,412.624,941.325z
			 M320.635,941.794c0.468,17.961,10.151,37.171,35.921,37.171s35.453-19.366,35.765-37.326
			c0.313-18.429-9.996-39.045-35.765-39.045S320.166,923.365,320.635,941.794z"/>
		<path id="XMLID_86_" style="fill:#1D1714;" d="M508.98,912.744c-7.341-7.027-18.273-10.932-27.801-10.932
			c-23.427,0-37.639,17.805-37.639,40.294c0,17.961,10.464,36.545,37.639,36.545c8.59,0,16.087-1.873,24.677-8.746V950.54H477.9
			v-18.429h46.853v46.073c-10.776,12.338-24.363,19.678-43.574,19.678c-41.075,0-57.786-27.018-57.786-55.755
			c0-30.767,19.21-59.192,57.786-59.192c14.681,0,29.362,5.622,40.607,16.711L508.98,912.744z"/>
		<path id="XMLID_88_" style="fill:#1D1714;" d="M649.067,941.325c-0.313,28.269-17.648,56.536-56.069,56.536
			c-38.42,0-56.224-27.643-56.224-56.381c0-28.737,18.429-57.63,56.224-57.63C630.638,883.851,649.379,912.744,649.067,941.325z
			 M557.077,941.794c0.468,17.961,10.151,37.171,35.921,37.171c25.77,0,35.453-19.366,35.765-37.326
			c0.313-18.429-9.995-39.045-35.765-39.045C567.229,902.593,556.608,923.365,557.077,941.794z"/>
		<path id="XMLID_91_" style="fill:#00AE4D;" d="M724.025,904.779h-34.672v-18.74c31.548,0,58.255,0,89.959,0v18.74H744.64v90.584
			h-20.615V904.779z"/>
		<path id="XMLID_93_" style="fill:#00AE4D;" d="M873.326,995.363h-81.838c0-36.39,0-72.935,0-109.325h81.838v19.991h-61.378v25.144
			h59.192v19.211h-59.192v24.675h61.378V995.363z"/>
		<path id="XMLID_95_" style="fill:#00AE4D;" d="M963.437,886.038h22.645v0.937l-37.014,53.101l38.107,54.662v0.625h-23.115
			l-27.956-41.075l-27.956,41.075h-23.113v-0.625l37.952-54.662l-36.859-53.101v-0.937h22.646l27.331,40.763L963.437,886.038z"/>
		<path id="XMLID_97_" style="fill:#00AE4D;" d="M1027.621,904.779h-34.672v-18.74c31.548,0,58.255,0,89.959,0v18.74h-34.672v90.584
			h-20.615V904.779z"/>
	</g>
	<g id="XMLID_5_">
		<path id="XMLID_25_" style="fill:#00AE4D;" d="M270.973,1027.796v27.382c3.488-6.976,10.464-10.116,17.876-10.116
			c12.034,0,21.627,8.022,21.627,22.237c0,14.302-9.505,22.238-21.539,22.238c-7.325,0-14.389-3.663-17.964-10.203v9.505h-4.186
			v-61.042H270.973z M271.06,1067.212c0,10.725,7.499,18.137,17.615,18.137c9.679,0,17.615-6.104,17.615-18.051
			c0-12.121-7.936-18.138-17.615-18.138C278.733,1049.16,271.06,1056.485,271.06,1067.212z"/>
		<path id="XMLID_31_" style="fill:#00AE4D;" d="M364.36,1088.838v-7.761c-3.314,5.93-9.331,8.371-15.348,8.459
			c-11.511,0-19.447-7.064-19.447-19.01v-24.853h4.273v24.765c0,9.767,6.017,14.999,15.348,14.911
			c8.895-0.086,15.086-6.801,15.086-15.696v-23.981h4.273v43.165H364.36z"/>
		<path id="XMLID_33_" style="fill:#00AE4D;" d="M418.07,1053.607c-4.36-3.837-8.633-4.535-13.429-4.535
			c-6.715-0.086-13.168,2.443-12.993,7.936c0.175,5.755,7.674,6.889,13.08,7.849c7.674,1.308,18.226,2.616,17.79,12.645
			c-0.262,9.505-10.116,12.034-17.702,12.034c-7.587,0-15.086-2.878-18.836-8.634l3.139-2.791
			c3.576,5.146,10.028,7.325,15.784,7.325c5.233,0,13.168-1.395,13.43-8.196c0.174-6.192-6.976-7.413-14.04-8.547
			c-8.371-1.395-16.656-2.964-16.743-11.598c-0.088-8.459,8.371-12.122,17.091-12.034c6.279,0,11.773,1.744,16.045,5.755
			L418.07,1053.607z"/>
		<path id="XMLID_35_" style="fill:#00AE4D;" d="M446.405,1031.72c0,4.534-6.889,4.534-6.889,0
			C439.516,1027.185,446.405,1027.185,446.405,1031.72z M440.737,1045.585v43.253h4.273v-43.253H440.737z"/>
		<path id="XMLID_38_" style="fill:#00AE4D;" d="M470.121,1045.759v7.675c3.314-5.93,9.331-8.372,15.348-8.459
			c11.51,0,19.446,7.064,19.446,19.01v24.853h-4.273v-24.765c0-9.767-6.017-15-15.348-14.912
			c-8.895,0.088-15.086,6.802-15.086,15.697v23.981h-4.273v-43.079H470.121z"/>
		<path id="XMLID_40_" style="fill:#00AE4D;" d="M522.35,1067.298c0-12.906,9.767-22.237,21.888-22.237
			c12.121,0,22.935,7.412,21.278,24.242H526.71c0.872,10.116,8.633,15.958,17.528,15.958c5.669,0,12.296-2.267,15.522-6.541
			l3.052,2.443c-4.186,5.493-11.685,8.284-18.574,8.284C532.116,1089.448,522.35,1080.989,522.35,1067.298z M561.678,1065.554
			c-0.087-10.638-7.063-16.568-17.441-16.568c-8.895,0-16.569,6.016-17.528,16.568H561.678z"/>
		<path id="XMLID_58_" style="fill:#00AE4D;" d="M614.866,1053.607c-4.36-3.837-8.633-4.535-13.43-4.535
			c-6.715-0.086-13.168,2.443-12.993,7.936c0.174,5.755,7.674,6.889,13.08,7.849c7.674,1.308,18.226,2.616,17.79,12.645
			c-0.262,9.505-10.116,12.034-17.702,12.034c-7.587,0-15.086-2.878-18.836-8.634l3.139-2.791
			c3.576,5.146,10.028,7.325,15.784,7.325c5.232,0,13.168-1.395,13.429-8.196c0.175-6.192-6.976-7.413-14.04-8.547
			c-8.372-1.395-16.655-2.964-16.743-11.598c-0.087-8.459,8.372-12.122,17.092-12.034c6.279,0,11.773,1.744,16.045,5.755
			L614.866,1053.607z"/>
		<path id="XMLID_60_" style="fill:#00AE4D;" d="M667.094,1053.607c-4.36-3.837-8.633-4.535-13.429-4.535
			c-6.715-0.086-13.168,2.443-12.993,7.936c0.175,5.755,7.674,6.889,13.08,7.849c7.674,1.308,18.226,2.616,17.79,12.645
			c-0.262,9.505-10.116,12.034-17.702,12.034c-7.587,0-15.086-2.878-18.836-8.634l3.139-2.791
			c3.576,5.146,10.028,7.325,15.784,7.325c5.232,0,13.168-1.395,13.429-8.196c0.175-6.192-6.976-7.413-14.039-8.547
			c-8.372-1.395-16.656-2.964-16.743-11.598c-0.088-8.459,8.371-12.122,17.091-12.034c6.279,0,11.773,1.744,16.045,5.755
			L667.094,1053.607z"/>
		<path id="XMLID_62_" style="fill:#1D1714;" d="M732.311,1032.766v12.993h14.651v3.576h-14.651v26.248
			c0,5.843,1.221,9.941,7.936,9.941c2.094,0,4.447-0.698,6.627-1.744l1.483,3.489c-2.703,1.308-5.407,2.18-8.11,2.18
			c-9.156,0-12.12-5.407-12.12-13.865v-26.248h-9.157v-3.576h9.157v-12.557L732.311,1032.766z"/>
		<path id="XMLID_64_" style="fill:#1D1714;" d="M806.953,1045.759c0,14.389,0,28.691,0,43.079h-4.272v-9.156
			c-4.186,6.715-10.639,9.854-17.615,9.854c-12.034,0-21.889-9.07-21.889-22.238c0-13.168,9.854-22.063,21.889-22.063
			c6.976,0,14.04,3.227,17.615,9.942v-9.419H806.953z M767.451,1067.298c0,10.813,7.848,18.051,17.615,18.051
			c23.981,0,23.981-36.014,0-36.014C775.299,1049.335,767.451,1056.485,767.451,1067.298z"/>
		<path id="XMLID_67_" style="fill:#1D1714;" d="M861.884,1044.016l2.79,2.441l-4.186,4.883c3.052,3.314,5.32,7.674,5.32,14.651
			c0,7.499-4.447,15.086-11.599,18.312c7.587,2.704,11.773,8.024,11.773,15.435c0,11.598-9.068,17.179-20.493,17.179
			c-11.424,0-20.404-6.278-20.404-17.179h4.272c0,8.807,7.499,12.993,16.132,12.993c8.634,0,16.308-3.837,16.308-12.993
			c0-9.244-8.284-12.906-16.308-12.906c-12.47,0-20.231-9.33-20.231-20.841c0-13.429,9.068-21.016,20.231-21.016
			c4.361,0,8.896,1.57,12.209,3.924L861.884,1044.016z M829.531,1065.991c0,8.895,6.104,16.568,15.957,16.568
			c8.896,0,16.134-7.673,16.134-16.568c0-10.901-7.238-16.743-16.134-16.743C836.681,1049.248,829.531,1054.741,829.531,1065.991z"
			/>
		<path id="XMLID_70_" style="fill:#1D1714;" d="M887.601,1027.796v61.042h-4.272v-61.042H887.601z"/>
		<path id="XMLID_72_" style="fill:#1D1714;" d="M913.935,1031.72c0,4.534-6.89,4.534-6.89,0
			C907.045,1027.185,913.935,1027.185,913.935,1031.72z M908.266,1045.585v43.253h4.272v-43.253H908.266z"/>
		<path id="XMLID_75_" style="fill:#1D1714;" d="M937.65,1045.759v7.675c3.314-5.93,9.33-8.372,15.348-8.459
			c11.511,0,19.446,7.064,19.446,19.01v24.853h-4.273v-24.765c0-9.767-6.016-15-15.348-14.912
			c-8.895,0.088-15.085,6.802-15.085,15.697v23.981h-4.273v-43.079H937.65z"/>
		<path id="XMLID_77_" style="fill:#1D1714;" d="M989.879,1067.298c0-12.906,9.767-22.237,21.887-22.237
			c12.122,0,22.935,7.412,21.278,24.242h-38.806c0.872,10.116,8.633,15.958,17.528,15.958c5.668,0,12.296-2.267,15.523-6.541
			l3.052,2.443c-4.186,5.493-11.686,8.284-18.575,8.284C999.646,1089.448,989.879,1080.989,989.879,1067.298z M1029.208,1065.554
			c-0.088-10.638-7.064-16.568-17.441-16.568c-8.895,0-16.569,6.016-17.528,16.568H1029.208z"/>
	</g>
</g>
</svg>
